<?xml version="1.0" standalone="no"?>
<!DOCTYPE svg PUBLIC "-//W3C//DTD SVG 20010904//EN"
 "http://www.w3.org/TR/2001/REC-SVG-20010904/DTD/svg10.dtd">
<svg version="1.0" xmlns="http://www.w3.org/2000/svg"
 width="1380.000000pt" height="752.000000pt" viewBox="0 0 1380.000000 752.000000"
 preserveAspectRatio="xMidYMid meet">

<g transform="translate(0.000000,752.000000) scale(0.100000,-0.100000)"
fill="#000000" stroke="none">
<path d="M5612 5759 c-132 -22 -233 -79 -331 -186 -50 -54 -131 -162 -166
-222 -5 -9 -16 -23 -22 -31 -42 -49 -63 -79 -63 -88 0 -5 -7 -12 -15 -16 -8
-3 -15 -11 -15 -18 0 -7 -9 -19 -20 -26 -11 -7 -20 -17 -20 -24 0 -6 -9 -20
-21 -32 -43 -45 -548 -714 -608 -805 -76 -118 -78 -191 -8 -262 37 -39 39 -43
21 -50 -36 -14 -63 -9 -88 17 l-24 27 -12 -24 c-7 -12 -15 -62 -18 -109 -6
-119 9 -166 141 -415 60 -115 131 -250 157 -300 136 -262 365 -684 399 -733
62 -92 163 -178 266 -227 89 -42 307 -109 518 -159 59 -14 169 -43 245 -65
133 -38 526 -144 647 -175 86 -22 180 -28 250 -15 82 14 229 87 293 144 68 61
216 282 429 641 33 55 79 125 104 156 24 30 79 110 121 176 54 85 82 120 92
116 9 -3 24 7 37 26 18 24 29 30 46 25 21 -5 23 -2 23 39 0 57 11 85 50 130
60 68 120 41 120 -53 0 -65 -21 -112 -69 -152 -27 -22 -33 -32 -23 -38 7 -4
15 -22 18 -39 15 -112 25 -153 41 -179 8 -12 12 -27 8 -32 -3 -6 6 -43 20 -83
15 -40 26 -74 26 -75 -1 -2 -1 -10 -1 -19 0 -15 2 -15 25 0 33 22 32 8 -5 -34
-16 -19 -29 -46 -30 -59 0 -30 -38 -89 -62 -97 -9 -3 -62 -50 -118 -105 -55
-55 -105 -97 -110 -94 -15 9 -12 17 15 49 14 16 25 33 25 38 0 4 5 8 11 8 5 0
24 13 42 30 18 16 36 30 40 30 5 0 6 4 2 9 -3 6 4 15 16 21 11 7 18 14 15 17
-3 3 -20 -7 -38 -21 -46 -38 -137 -117 -164 -142 -16 -15 -26 -18 -33 -11 -8
8 -11 7 -11 -2 0 -8 23 -37 52 -65 l51 -51 7 31 c10 44 36 78 127 164 94 89
162 138 171 123 4 -6 17 -13 30 -17 12 -4 20 -12 17 -17 -4 -5 -4 -9 -1 -9 2
0 33 -7 68 -17 35 -9 74 -17 88 -18 41 -4 84 -25 106 -53 18 -22 31 -27 73
-28 75 -2 118 -13 125 -30 3 -8 10 -12 16 -9 5 3 25 -5 43 -19 22 -17 47 -26
71 -26 35 0 37 2 36 27 -3 47 0 64 9 59 5 -4 7 3 4 15 -4 13 -11 18 -21 14 -8
-3 -34 -10 -58 -16 -135 -34 -183 65 -63 129 78 41 189 23 189 -31 0 -15 3
-18 11 -10 6 6 18 9 25 6 8 -3 18 5 23 18 7 17 10 19 10 7 1 -9 -4 -20 -9 -23
-6 -4 -8 -11 -5 -16 4 -5 13 -3 21 6 9 8 12 19 9 25 -3 5 -1 10 5 10 6 0 8 5
5 10 -3 6 0 10 9 10 8 0 17 -6 20 -12 3 -7 4 -1 2 15 -2 15 1 30 5 33 5 3 9
14 9 25 0 11 7 19 16 19 8 0 12 5 9 10 -3 6 0 10 7 10 8 0 19 5 26 12 17 17
42 19 42 2 0 -17 33 -18 62 -3 37 20 117 14 141 -10 20 -20 20 -22 4 -55 -10
-21 -34 -45 -62 -61 -39 -23 -54 -27 -98 -22 -29 3 -63 8 -77 11 l-25 7 23
-12 c15 -8 21 -18 17 -28 -5 -13 -4 -14 6 -4 17 17 29 16 29 -1 0 -8 9 -18 21
-21 16 -5 18 -9 8 -21 -10 -12 -10 -15 2 -12 8 2 13 -3 12 -9 -4 -17 9 -17 26
-1 11 11 13 10 8 -5 -4 -9 -2 -17 3 -17 6 0 10 -9 10 -19 0 -25 12 -32 30 -21
13 8 13 11 -1 22 -21 17 -31 46 -18 53 5 4 8 1 7 -6 -2 -6 2 -13 8 -16 14 -5
16 45 2 53 -5 3 -16 -2 -24 -12 -13 -18 -15 -18 -25 -1 -5 9 -19 17 -29 17
-18 0 -39 19 -23 21 48 7 63 6 58 -2 -4 -5 1 -9 9 -9 10 0 13 6 10 15 -7 17
11 21 21 5 3 -5 15 -10 26 -10 12 0 17 4 14 11 -4 6 -13 8 -21 5 -8 -3 -14 -1
-14 4 0 15 27 12 44 -5 15 -16 66 -12 66 5 0 5 8 7 18 6 9 -2 21 2 25 8 6 8
10 7 14 -2 4 -10 11 -9 31 4 31 21 52 40 52 49 0 3 -4 4 -9 0 -5 -3 -12 -1
-16 5 -4 6 -12 8 -18 4 -7 -3 -3 1 7 10 10 8 23 13 29 9 6 -3 7 -1 3 6 -4 6
-10 9 -14 7 -4 -2 -7 12 -7 32 0 28 -4 36 -15 34 -19 -5 -7 7 22 23 13 6 22
17 20 24 -2 9 3 9 18 1 11 -6 25 -8 30 -5 16 10 59 -6 63 -23 5 -22 50 72 45
96 -3 14 -13 17 -53 14 -103 -5 -118 -4 -133 12 -15 15 -15 16 3 17 11 1 23 1
28 0 4 0 7 4 7 10 0 6 -7 9 -15 5 -8 -3 -15 0 -15 6 0 7 -5 6 -15 -2 -12 -10
-16 -10 -20 1 -3 9 -24 15 -52 17 -38 2 -53 9 -75 33 -16 17 -36 29 -46 27 -9
-2 -23 3 -30 12 -8 8 -11 10 -8 4 9 -19 -17 -23 -70 -12 -27 5 -55 10 -61 11
-7 0 -13 4 -13 9 0 4 -8 8 -18 8 -19 0 -83 28 -92 40 -3 4 -14 10 -24 13 -42
16 -4 17 59 2 121 -28 90 -6 -80 57 -95 35 -119 49 -163 97 -78 85 -114 178
-162 416 -30 148 -49 215 -60 215 -18 0 -10 -103 16 -220 34 -152 45 -223 35
-233 -4 -4 -15 30 -25 75 -47 224 -90 385 -106 403 -12 13 -24 55 -35 120 -15
97 -27 148 -45 190 -4 11 -12 29 -16 40 -12 34 -16 -5 -6 -69 7 -46 6 -59 -4
-63 -8 -3 -11 -10 -8 -15 4 -6 9 -6 14 2 5 8 9 5 13 -9 3 -12 1 -24 -4 -27 -5
-3 -9 -11 -9 -17 0 -7 4 -6 10 3 8 13 9 13 13 0 3 -8 13 -40 23 -71 17 -55 17
-58 -1 -75 -11 -12 -14 -19 -6 -22 6 -2 9 -8 5 -13 -3 -5 -13 -5 -25 1 -16 9
-21 7 -29 -15 -9 -23 -14 -25 -56 -22 -45 3 -46 3 -69 -44 -42 -82 -107 -113
-139 -67 -23 33 -20 97 7 151 13 25 20 44 14 40 -5 -3 -13 1 -18 8 -4 8 -13
14 -19 14 -6 0 -21 29 -34 65 -12 36 -40 110 -60 165 -21 55 -62 169 -91 252
-30 84 -60 165 -69 180 -26 50 -55 117 -62 148 -4 17 -13 41 -20 55 -14 28
-26 58 -30 79 -1 7 -7 18 -13 24 -6 6 -11 17 -11 25 0 7 -15 37 -34 65 -27 41
-34 63 -35 105 -2 74 -3 82 -13 82 -5 0 -7 4 -4 9 3 4 -1 17 -9 27 -8 10 -15
30 -15 44 0 48 -40 124 -80 153 -21 15 -45 27 -53 27 -16 0 -34 18 -39 39 -2
8 -20 29 -40 48 -35 33 -65 93 -54 111 8 13 -59 52 -136 78 -72 25 -200 45
-838 133 -280 39 -712 92 -721 90 -2 -1 -28 -5 -57 -10z m568 -435 c30 -8 61
-16 68 -16 6 -1 12 -5 12 -10 0 -5 5 -6 12 -2 6 4 8 3 5 -3 -4 -6 0 -17 9 -24
28 -23 47 -73 47 -126 0 -58 -14 -99 -53 -158 -15 -22 -25 -46 -23 -53 3 -7
-1 -10 -9 -7 -7 2 -22 -8 -33 -23 -15 -21 -15 -24 -2 -13 14 11 17 11 18 0 0
-8 4 -5 9 6 8 18 9 18 9 2 1 -10 14 -30 31 -43 24 -20 27 -28 17 -39 -6 -7
-14 -13 -17 -12 -3 0 -22 -7 -42 -16 -21 -10 -42 -17 -48 -17 -5 0 -10 -6 -10
-12 0 -10 -2 -10 -9 0 -5 9 -17 11 -36 6 -20 -5 -26 -4 -21 5 5 8 1 8 -18 -1
-14 -6 -26 -15 -26 -20 0 -4 -10 -8 -22 -8 -19 0 -18 3 13 26 43 33 31 29 -53
-19 -63 -36 -89 -57 -53 -44 8 4 17 2 20 -4 4 -5 11 -7 16 -4 5 4 9 1 9 -4 0
-6 -5 -11 -11 -11 -8 0 -7 -5 1 -15 11 -13 9 -20 -10 -40 -13 -13 -27 -22 -31
-19 -5 3 -9 -3 -9 -13 0 -32 -76 -82 -115 -76 -19 3 -19 3 -1 -5 19 -8 19 -9
0 -17 -15 -6 -5 -11 44 -24 35 -9 64 -19 65 -22 5 -16 -126 -199 -141 -199 -9
0 -61 9 -115 20 -112 23 -141 25 -117 10 12 -8 12 -10 -4 -16 -11 -4 -21 -2
-27 7 -6 10 -9 10 -9 2 0 -7 -5 -13 -11 -13 -5 0 -8 3 -6 8 3 4 -8 7 -24 8
-17 1 -26 -3 -22 -9 3 -6 1 -7 -5 -3 -14 9 -45 16 -90 21 -25 2 -32 0 -28 -10
2 -7 -2 -16 -11 -19 -11 -5 -14 -2 -9 11 6 17 5 17 -8 1 -7 -10 -21 -18 -30
-18 -9 0 -16 -5 -16 -11 0 -5 -4 -7 -10 -4 -6 3 -7 -1 -4 -9 7 -17 -4 -20 -24
-8 -17 11 -4 42 14 35 12 -5 13 -1 3 21 -7 16 -18 25 -26 22 -7 -3 -13 -1 -13
4 0 16 45 22 125 18 41 -3 75 -1 75 2 0 13 -191 42 -204 30 -12 -9 -40 -8
-110 4 -11 1 -22 8 -24 15 -3 9 2 11 18 6 16 -5 20 -4 15 5 -4 7 -20 10 -39 7
-17 -3 -25 -3 -18 0 6 2 10 9 6 14 -3 5 16 39 41 76 27 38 42 69 36 71 -16 5
-13 38 5 52 8 8 42 14 75 16 33 1 63 5 67 9 4 4 -2 6 -13 5 -11 -2 -35 1 -53
5 -24 6 -30 11 -22 20 6 7 21 11 35 9 14 -1 25 2 25 7 0 14 28 11 33 -3 4 -10
8 -10 14 -2 12 17 46 25 63 14 13 -8 12 -10 -2 -10 -10 0 -18 -4 -18 -10 0 -5
2 -10 4 -10 10 0 116 50 116 55 0 3 -9 1 -19 -5 -27 -14 -34 -13 -27 5 4 11 0
15 -11 13 -12 -2 -17 5 -18 24 -1 19 2 25 13 21 11 -5 12 -2 4 14 -6 11 -7 25
-2 33 5 8 7 17 4 21 -5 9 17 6 33 -4 6 -4 15 -2 19 4 5 8 2 10 -7 5 -8 -4 -3
2 11 13 14 11 33 23 43 27 9 3 15 9 12 13 -2 5 7 6 20 3 16 -3 25 0 25 8 0 7
7 10 16 6 8 -3 28 4 44 15 25 19 27 24 14 36 -8 8 -14 20 -13 26 0 9 2 9 5 1
6 -15 54 6 54 24 0 6 8 13 18 13 9 1 -25 10 -77 20 -52 11 -96 21 -99 24 -2 2
6 19 19 37 75 108 246 211 394 238 64 11 185 4 255 -16z m994 -119 c-6 -16
-24 -21 -24 -7 0 11 11 22 21 22 5 0 6 -7 3 -15z m-1514 -195 c0 -5 -4 -10
-10 -10 -5 0 -10 5 -10 10 0 6 5 10 10 10 6 0 10 -4 10 -10z m-197 -135 c-3
-9 -8 -14 -10 -11 -3 3 -2 9 2 15 9 16 15 13 8 -4z m-93 -139 c0 -3 -4 -8 -10
-11 -5 -3 -10 -1 -10 4 0 6 5 11 10 11 6 0 10 -2 10 -4z m2129 -50 c48 -51 63
-165 36 -269 -37 -142 -104 -210 -180 -181 -27 11 -58 85 -63 155 -14 200 118
390 207 295z m-437 -103 c22 -76 40 -126 77 -207 17 -36 31 -77 31 -89 0 -12
7 -47 15 -77 8 -30 15 -66 15 -80 0 -14 15 -56 34 -94 22 -45 33 -82 32 -107
-1 -33 2 -38 32 -49 18 -6 30 -15 28 -19 -3 -4 10 -15 29 -24 55 -26 70 -66
70 -183 0 -99 -1 -104 -40 -180 -31 -61 -48 -83 -76 -98 -79 -43 -130 14 -137
153 -4 74 0 96 22 161 15 41 28 84 30 95 2 11 8 19 14 18 14 -3 -3 68 -20 78
-7 5 -43 9 -80 10 -38 1 -78 2 -90 3 -13 1 -36 -2 -53 -7 -16 -4 -36 -10 -44
-11 -23 -4 -30 -38 -13 -63 8 -13 11 -23 8 -23 -4 0 -2 -9 4 -20 21 -40 30
-132 19 -200 -33 -212 -188 -326 -250 -184 -41 91 -34 215 16 318 49 100 64
121 88 119 12 -1 16 0 10 3 -10 4 -9 13 3 37 15 29 15 31 -2 44 -32 23 -97 35
-181 34 -59 -2 -83 1 -83 10 0 28 280 471 348 551 15 18 36 47 46 63 25 41 57
75 71 75 6 0 18 -26 27 -57z m-467 26 l47 -21 -7 -56 c-4 -32 -13 -64 -21 -73
-8 -8 -14 -21 -14 -27 0 -7 -4 -12 -8 -12 -8 0 -52 -69 -89 -140 -23 -45 -166
-240 -217 -296 -26 -30 -49 -46 -73 -50 -23 -4 -38 -15 -45 -30 -6 -13 -15
-24 -19 -24 -4 0 -15 -8 -24 -17 -11 -10 -35 -17 -64 -18 -25 -1 -63 -9 -84
-18 -21 -9 -35 -12 -31 -6 4 8 1 8 -13 0 -11 -6 -23 -7 -27 -4 -3 3 -6 2 -6
-4 0 -5 -6 -10 -12 -10 -143 -9 -171 -12 -178 -24 -7 -10 -27 -9 -102 5 -142
28 -229 44 -268 50 -58 9 -152 50 -167 73 -20 30 -10 54 38 92 33 27 49 33 92
34 29 1 77 -5 107 -13 97 -25 440 -7 440 23 0 6 3 8 6 4 20 -20 262 171 266
210 0 4 5 19 10 33 6 14 11 30 12 36 1 5 7 17 14 25 7 8 31 38 53 67 22 28 45
52 49 52 5 0 39 30 77 67 37 38 79 73 93 80 40 18 113 15 165 -8z m275 -37
c-46 -63 -60 -78 -60 -60 0 16 48 89 69 105 29 21 25 4 -9 -45z m-1923 23 c0
-6 -6 -12 -12 -12 -6 0 -12 6 -12 12 0 6 6 12 12 12 6 0 12 -6 12 -12z m-45
-17 c-7 -7 -12 -8 -12 -2 0 6 3 14 7 17 3 4 9 5 12 2 2 -3 -1 -11 -7 -17z
m1982 -80 c-9 -18 -34 -55 -56 -83 -54 -70 -131 -174 -144 -197 -15 -25 -54
-61 -54 -50 0 19 225 361 249 379 24 17 26 -8 5 -49z m-1007 -2 c0 -8 -6 -12
-15 -9 -11 5 -11 7 0 14 7 5 13 9 14 9 0 0 1 -6 1 -14z m853 -15 c0 -5 -15
-30 -34 -54 -19 -25 -45 -65 -58 -89 -25 -47 -98 -141 -105 -135 -5 5 91 163
111 182 8 8 24 31 37 52 27 45 49 64 49 44z m34 -51 c-10 -16 -20 -28 -22 -26
-4 5 28 56 35 56 2 0 -4 -13 -13 -30z m-46 -78 c-12 -20 -36 -55 -54 -77 -17
-22 -39 -55 -49 -74 -19 -38 -78 -125 -105 -156 -10 -11 -30 -43 -44 -71 -29
-57 -71 -101 -80 -86 -3 6 10 32 29 58 20 27 48 69 63 93 15 24 46 69 70 100
23 31 72 102 109 158 37 56 71 99 76 96 4 -2 -2 -21 -15 -41z m-1528 -132 c0
-5 -2 -10 -4 -10 -3 0 -8 5 -11 10 -3 6 -1 10 4 10 6 0 11 -4 11 -10z m1275
-131 c-27 -47 -75 -109 -75 -97 0 4 10 22 23 41 12 19 33 52 47 75 33 54 38
38 5 -19z m121 -1 c-18 -26 -22 -17 -5 14 6 11 13 17 16 15 3 -3 -2 -16 -11
-29z m-32 -50 c-4 -13 -20 -41 -37 -63 -44 -58 -46 -60 -40 -36 3 11 9 21 14
21 5 0 9 5 9 12 0 12 49 88 57 88 2 0 1 -10 -3 -22z m-204 -114 c0 -3 -20 -25
-45 -48 -89 -86 -352 -167 -452 -140 -39 11 -14 24 45 24 32 0 90 9 130 20 70
20 167 63 177 80 3 5 18 11 34 15 16 3 35 13 41 21 7 7 16 11 21 8 5 -3 12 2
15 10 6 15 34 23 34 10z m1474 -111 c51 -55 59 -165 21 -280 -30 -88 -64 -137
-107 -152 -121 -42 -159 231 -54 387 50 74 98 90 140 45z m-2466 -78 c205 -40
242 -48 242 -55 0 -6 -45 -15 -107 -22 -45 -5 70 -50 212 -83 60 -14 129 -37
155 -51 25 -14 77 -43 117 -64 98 -52 137 -83 198 -160 72 -91 118 -166 143
-233 12 -32 34 -81 48 -110 37 -71 74 -184 74 -222 l0 -31 -88 -2 c-60 -2
-101 2 -132 13 -25 9 -115 34 -200 56 -85 21 -164 43 -175 48 -11 5 -28 12
-38 15 -24 8 -33 35 -19 57 7 10 9 31 7 46 -7 37 17 67 45 60 40 -10 139 15
167 42 32 33 69 111 57 119 -6 4 -20 24 -33 44 -12 21 -42 54 -65 73 -23 19
-49 46 -56 61 -16 29 -87 69 -143 79 -60 12 -147 -3 -168 -28 -38 -46 -71 -81
-58 -62 13 18 13 19 -4 6 -16 -13 -16 -15 5 -50 12 -20 24 -38 28 -41 22 -20
59 -93 60 -121 3 -50 -8 -73 -42 -93 -27 -17 -29 -22 -23 -55 3 -20 14 -43 22
-51 9 -8 13 -9 9 -2 -4 6 -2 12 3 12 6 0 11 -8 11 -19 0 -22 23 -44 35 -33 5
4 5 2 2 -4 -4 -7 0 -17 8 -24 8 -7 15 -9 15 -4 0 20 22 -17 26 -42 2 -16 6
-43 9 -59 5 -23 1 -37 -13 -55 -56 -70 -265 22 -340 148 -34 59 -44 136 -24
180 9 17 19 32 24 32 14 0 9 27 -8 41 -8 7 -27 36 -41 63 -14 28 -32 59 -41
69 -8 9 -12 17 -8 17 4 0 -2 15 -13 34 -12 18 -25 57 -31 86 -6 30 -22 67 -38
88 -77 98 -173 246 -168 258 4 11 30 13 116 11 72 -1 113 2 118 9 6 9 22 18
40 23 2 1 38 -6 80 -14z m612 -35 c0 -5 -12 -10 -27 -9 -25 0 -26 1 -8 9 27
12 35 12 35 0z m415 -80 c4 -22 2 -80 -5 -128 -10 -80 -9 -97 9 -170 11 -45
27 -95 36 -113 9 -17 27 -61 39 -97 13 -37 38 -107 55 -155 29 -80 34 -136 11
-122 -34 21 -136 272 -192 473 -17 62 -27 78 -62 107 -23 19 -54 39 -69 44
-23 9 -28 16 -25 38 2 18 12 32 28 39 90 42 101 50 126 91 14 24 29 41 34 38
4 -3 11 -23 15 -45z m1721 -75 c-10 -43 -11 -44 -23 -22 -6 13 -24 29 -39 36
-21 9 -25 14 -14 21 7 4 23 6 35 4 15 -3 25 2 29 13 14 34 22 -6 12 -52z
m-2120 42 c4 -4 0 -7 -9 -7 -9 0 -18 4 -21 9 -7 10 20 9 30 -2z m-1152 -115
c145 -78 238 -231 176 -287 -87 -78 -360 118 -360 259 0 72 81 84 184 28z
m3213 -126 c-4 -11 -1 -13 11 -9 9 3 -7 -19 -35 -48 -29 -30 -53 -60 -53 -66
0 -6 -7 -16 -15 -23 -11 -9 -15 -9 -15 -1 0 26 85 161 101 161 6 0 9 -7 6 -14z
m-119 -71 c-1 -14 -8 -22 -17 -20 -18 2 -25 20 -17 40 8 22 36 6 34 -20z
m-1444 -10 c-3 -20 0 -25 15 -25 12 0 21 -9 25 -25 4 -14 17 -32 31 -41 14 -9
25 -24 25 -33 0 -10 16 -22 45 -32 24 -9 42 -12 39 -8 -10 16 49 -11 62 -29
20 -25 17 -33 -25 -79 -22 -23 -47 -56 -57 -73 -10 -16 -21 -30 -24 -30 -24 0
-180 295 -180 341 0 11 9 28 19 38 11 11 16 23 13 27 -4 4 -2 4 5 0 6 -3 10
-18 7 -31z m1916 -52 c42 -53 8 -174 -60 -220 -41 -28 -54 -29 -80 -3 -44 44
-17 167 50 224 40 33 63 33 90 -1z m388 -136 c29 -31 52 -62 52 -67 0 -16 -46
-11 -67 8 -11 9 -22 26 -26 37 -3 11 -10 35 -16 53 -13 43 -5 39 57 -31z
m-138 -42 c0 -14 -4 -25 -9 -25 -4 0 -6 11 -3 25 2 14 6 25 8 25 2 0 4 -11 4
-25z m-1383 -92 c24 -31 28 -47 32 -115 7 -161 -64 -307 -158 -324 -30 -6 -38
-3 -62 24 -37 41 -53 103 -46 177 15 148 93 275 170 275 30 0 41 -6 64 -37z
m-760 -195 c-3 -8 -6 -5 -6 6 -1 11 2 17 5 13 3 -3 4 -12 1 -19z m2863 -47 c3
-2 -2 -2 -11 1 -9 4 -16 1 -16 -7 0 -7 6 -11 13 -8 7 2 15 -5 19 -16 3 -12 10
-19 15 -16 5 3 15 -1 22 -8 7 -8 20 -12 28 -10 9 3 22 -3 29 -11 11 -14 11
-16 -5 -17 -11 -1 -22 -1 -26 0 -4 0 -5 -7 -2 -17 5 -15 4 -15 -10 2 -10 13
-21 16 -33 11 -29 -13 -73 -11 -73 2 0 13 -42 28 -72 26 -25 -2 -15 31 11 35
12 2 19 7 16 12 -3 5 8 7 25 5 16 -2 29 -1 29 3 -1 4 -1 15 0 26 1 18 9 16 41
-13z m-493 -3 c26 -21 15 -65 -23 -96 -67 -55 -169 -66 -209 -22 -53 58 67
148 180 134 21 -3 45 -10 52 -16z m567 -27 c3 -5 -1 -11 -9 -15 -8 -3 -17 0
-21 6 -4 7 -3 8 4 4 7 -4 12 -2 12 3 0 13 7 14 14 2z m90 -57 c3 -8 2 -12 -4
-9 -6 3 -10 10 -10 16 0 14 7 11 14 -7z m-284 -11 c0 -10 -4 -14 -8 -8 -4 6
-11 13 -16 18 -5 4 -2 7 7 7 10 0 17 -8 17 -17z m55 7 c3 -5 1 -10 -4 -10 -6
0 -11 5 -11 10 0 6 2 10 4 10 3 0 8 -4 11 -10z m-3179 -144 c22 -7 45 -11 52
-9 17 6 99 -43 112 -67 6 -11 8 -20 5 -20 -3 0 10 -24 30 -52 47 -71 53 -106
24 -142 -20 -26 -26 -28 -75 -24 -104 9 -232 96 -283 193 -55 104 12 164 135
121z m-1056 -77 c0 -5 -2 -9 -4 -9 -2 0 -11 -3 -19 -6 -12 -4 -14 0 -10 15 5
19 33 19 33 0z"/>
<path d="M5907 5140 c-51 -9 -67 -26 -32 -32 15 -3 32 0 39 8 10 10 16 10 26
1 10 -9 11 -9 5 3 -6 12 -5 12 4 4 13 -12 51 -7 51 6 0 7 -38 21 -50 19 -3 -1
-22 -5 -43 -9z"/>
<path d="M5730 4860 c0 -5 7 -7 15 -4 8 4 15 8 15 10 0 2 -7 4 -15 4 -8 0 -15
-4 -15 -10z"/>
<path d="M5880 4650 c-12 -8 -11 -10 8 -10 12 0 22 5 22 10 0 13 -11 13 -30 0z"/>
<path d="M5613 4561 c-67 -26 -63 -34 12 -26 39 4 75 7 82 8 6 0 9 6 6 13 -2
6 -13 9 -25 6 -14 -3 -19 -1 -14 6 10 16 -10 14 -61 -7z"/>
<path d="M5728 4503 c7 -3 16 -2 19 1 4 3 -2 6 -13 5 -11 0 -14 -3 -6 -6z"/>
<path d="M5768 4493 c7 -3 16 -2 19 1 4 3 -2 6 -13 5 -11 0 -14 -3 -6 -6z"/>
<path d="M5118 4373 c7 -3 16 -2 19 1 4 3 -2 6 -13 5 -11 0 -14 -3 -6 -6z"/>
<path d="M6858 3833 c7 -3 16 -2 19 1 4 3 -2 6 -13 5 -11 0 -14 -3 -6 -6z"/>
<path d="M8501 4123 c7 -10 14 -20 16 -22 1 -2 1 6 0 18 -1 11 -8 21 -15 21
-12 0 -12 -3 -1 -17z"/>
<path d="M8515 3993 c8 -67 25 -115 33 -94 7 20 -19 151 -31 151 -6 0 -6 -22
-2 -57z"/>
<path d="M8901 3714 c0 -11 3 -14 6 -6 3 7 2 16 -1 19 -3 4 -6 -2 -5 -13z"/>
<path d="M8931 3564 c0 -11 3 -14 6 -6 3 7 2 16 -1 19 -3 4 -6 -2 -5 -13z"/>
<path d="M9226 3511 c17 -20 38 -47 48 -61 9 -13 16 -19 16 -13 0 6 -21 34
-47 60 -27 27 -34 33 -17 14z"/>
<path d="M8990 3481 c0 -5 10 -13 23 -17 21 -7 20 -8 -8 -14 -29 -5 -28 -6 27
-29 32 -13 60 -31 63 -40 3 -10 17 -29 31 -42 22 -20 27 -22 46 -10 18 11 20
11 14 -4 -4 -11 -2 -15 6 -13 21 7 20 44 -1 90 -31 70 -80 101 -112 73 -16
-15 -20 -15 -48 -1 -35 18 -41 19 -41 7z"/>
<path d="M8963 3388 c1 -20 5 -34 8 -32 4 2 10 -3 13 -12 9 -22 8 -26 -5 -18
-8 4 -7 0 1 -15 6 -12 15 -19 21 -16 5 4 8 1 7 -6 -2 -8 7 -14 20 -15 13 -1
35 -12 49 -25 15 -13 8 -1 -16 26 -24 28 -56 72 -72 99 l-28 50 2 -36z"/>
<path d="M9165 3186 c16 -13 33 -22 37 -19 5 2 8 1 8 -4 0 -4 11 -8 24 -8 32
0 27 3 -41 31 l-58 24 30 -24z"/>
<path d="M9151 3153 c-9 -4 2 -13 30 -24 55 -22 66 -23 66 -4 0 9 -5 14 -12
12 -6 -3 -19 1 -30 9 -20 15 -31 16 -54 7z"/>
<path d="M9100 3080 c8 -5 22 -10 30 -10 13 0 13 1 0 10 -8 5 -22 10 -30 10
-13 0 -13 -1 0 -10z"/>
<path d="M9160 3060 c8 -5 20 -10 25 -10 6 0 3 5 -5 10 -8 5 -19 10 -25 10 -5
0 -3 -5 5 -10z"/>
<path d="M7850 3040 c0 -5 5 -10 11 -10 5 0 7 5 4 10 -3 6 -8 10 -11 10 -2 0
-4 -4 -4 -10z"/>
<path d="M9067 2468 c-6 -23 -1 -38 12 -38 4 0 8 14 9 30 1 35 -13 40 -21 8z"/>
<path d="M9107 2455 c-4 -8 -2 -17 3 -20 6 -4 10 3 10 14 0 25 -6 27 -13 6z"/>
<path d="M9302 2291 c-11 -7 -10 -10 3 -15 20 -7 38 1 30 15 -7 11 -16 11 -33
0z"/>
<path d="M9232 2276 c7 -8 15 -12 17 -11 5 6 -10 25 -20 25 -5 0 -4 -6 3 -14z"/>
<path d="M7975 2254 c-14 -15 -25 -31 -25 -35 0 -12 51 -11 70 1 9 6 17 5 22
-3 5 -7 8 1 8 19 0 30 -14 44 -41 44 -6 0 -21 -12 -34 -26z"/>
<path d="M9100 2250 c-8 -5 -33 -17 -55 -27 -22 -9 -45 -24 -52 -33 -6 -8 -16
-16 -22 -16 -6 -1 -16 -2 -22 -3 -6 0 -9 -7 -6 -15 3 -7 1 -18 -4 -23 -6 -6
-1 -19 13 -34 19 -20 32 -24 75 -23 62 2 139 44 129 70 -3 9 -1 24 4 34 14 26
-37 84 -60 70z"/>
<path d="M8403 2205 c-54 -33 -117 -50 -150 -39 -15 5 -15 4 -3 -5 8 -6 25
-11 37 -11 21 0 38 -15 38 -35 0 -11 59 -19 81 -11 8 3 17 5 19 6 3 0 11 4 18
10 6 6 24 19 39 30 23 18 36 62 17 57 -4 -1 -7 2 -7 7 0 9 -23 26 -32 25 -3
-1 -29 -16 -57 -34z"/>
<path d="M8655 2162 c-31 -26 -99 -112 -89 -112 5 0 1 -5 -8 -11 -10 -5 -18
-19 -18 -30 0 -11 -9 -23 -22 -28 -20 -7 -20 -8 -2 -15 34 -13 154 -36 187
-36 l32 1 -25 21 c-14 11 -24 25 -22 31 2 6 -3 14 -10 18 -10 7 -9 9 5 9 20 0
23 16 5 23 -10 4 -10 8 1 15 9 7 10 12 2 16 -19 12 -12 53 13 83 l24 29 -26 2
c-15 1 -36 -6 -47 -16z"/>
<path d="M8851 2065 c-31 -14 -33 -17 -26 -51 8 -48 26 -84 39 -84 18 1 48 28
36 32 -6 2 -12 29 -13 61 -1 31 -2 57 -2 57 0 -1 -15 -7 -34 -15z"/>
</g>
</svg>
